<svg width="279" height="73" viewBox="0 0 279 73" fill="none" xmlns="http://www.w3.org/2000/svg">
<ellipse cx="139.046" cy="36.2521" rx="137.5" ry="22" transform="rotate(6 139.046 36.2521)" fill="#AB0909" fill-opacity="0.5"/>
<ellipse cx="139.046" cy="36.2521" rx="137.5" ry="22" fill="#F0EDE9"/>
<path d="M43.4184 41.5961L45.7424 33.5321L44.0624 28.1841H42.4664V27.6521H51.1464V28.1841H49.4944L53.6664 41.4281L57.0264 28.1841H54.1984V27.6521H59.7984V28.1841H57.9504L52.7984 47.5321H50.3064L46.1624 34.8761L42.5224 47.5321H40.0864L33.0304 28.1841H31.7144V27.6521H40.8144V28.1841H38.8544L43.4184 41.5961ZM60.2365 26.2521H66.9845V36.5001C67.2832 35.6415 67.7405 34.9508 68.3565 34.4281C68.9725 33.9055 69.9059 33.6441 71.1565 33.6441C74.0499 33.6441 75.4965 35.2028 75.4965 38.3201V46.7481H77.0645V47.2521H69.1405V46.7481H70.2885V37.6481C70.2885 36.5281 70.2139 35.8095 70.0645 35.4921C69.9152 35.1561 69.6445 34.9881 69.2525 34.9881C68.6552 34.9881 68.1232 35.3801 67.6565 36.1641C67.2085 36.9481 66.9845 37.9001 66.9845 39.0201V46.7481H68.1885V47.2521H60.2365V46.7481H61.7765V26.7561H60.2365V26.2521ZM84.2104 40.6721H85.0224V38.5161C85.0224 36.7428 84.9198 35.5575 84.7144 34.9601C84.5278 34.3441 84.1544 34.0361 83.5944 34.0361C83.2584 34.0361 82.9504 34.1295 82.6704 34.3161C82.4091 34.4841 82.2784 34.7268 82.2784 35.0441C82.2784 35.3428 82.3344 35.6508 82.4464 35.9681H83.1464C83.2958 36.3601 83.3704 36.8361 83.3704 37.3961C83.3704 37.9375 83.1371 38.4135 82.6704 38.8241C82.2038 39.2161 81.6158 39.4121 80.9064 39.4121C79.3011 39.4121 78.4984 38.6375 78.4984 37.0881C78.4984 34.7921 80.4491 33.6441 84.3504 33.6441C86.5718 33.6441 88.1024 34.0268 88.9425 34.7921C89.8011 35.5388 90.2305 36.9201 90.2305 38.9361V44.6201C90.2305 45.5908 90.5011 46.0761 91.0424 46.0761C91.6771 46.0761 92.0504 45.1148 92.1625 43.1921L92.5824 43.2201C92.5078 44.8628 92.1998 45.9921 91.6585 46.6081C91.1171 47.2241 90.2304 47.5321 88.9985 47.5321C86.7585 47.5321 85.4704 46.8415 85.1344 45.4601C84.8918 46.1695 84.5278 46.6921 84.0424 47.0281C83.5571 47.3641 82.8478 47.5321 81.9144 47.5321C79.1518 47.5321 77.7704 46.4028 77.7704 44.1441C77.7704 42.8188 78.2931 41.9135 79.3384 41.4281C80.4024 40.9241 82.0264 40.6721 84.2104 40.6721ZM83.0904 44.1161C83.0904 45.0868 83.1371 45.7121 83.2304 45.9921C83.3424 46.2721 83.5384 46.4121 83.8184 46.4121C84.1171 46.4121 84.3878 46.1788 84.6304 45.7121C84.8918 45.2268 85.0224 44.5641 85.0224 43.7241V41.1201H84.8264C83.6691 41.1201 83.0904 41.9695 83.0904 43.6681V44.1161ZM93.8475 43.2481V34.4281H92.3075V33.9241H93.8475V30.3121L99.0555 29.0241V33.9241H102.695V34.4281H99.0555V43.8641C99.0555 44.7415 99.1395 45.3855 99.3075 45.7961C99.4941 46.2068 99.8675 46.4121 100.427 46.4121C100.987 46.4121 101.473 46.1321 101.883 45.5721C102.313 45.0121 102.593 44.2468 102.723 43.2761L103.199 43.3321C103.05 44.6201 102.639 45.6468 101.967 46.4121C101.295 47.1588 100.185 47.5321 98.6355 47.5321C97.0861 47.5321 95.9008 47.2241 95.0795 46.6081C94.2581 45.9921 93.8475 44.8721 93.8475 43.2481ZM108.918 27.6521H117.458V28.1841H115.918V46.7201H117.458V47.2521H108.918V46.7201H110.458V28.1841H108.918V27.6521ZM118.507 33.9241H125.255V36.5001C125.554 35.6415 126.011 34.9508 126.627 34.4281C127.243 33.9055 128.177 33.6441 129.427 33.6441C132.321 33.6441 133.767 35.2028 133.767 38.3201V46.7481H135.335V47.2521H127.411V46.7481H128.559V37.6481C128.559 36.5281 128.485 35.8095 128.335 35.4921C128.186 35.1561 127.915 34.9881 127.523 34.9881C126.926 34.9881 126.394 35.3801 125.927 36.1641C125.479 36.9481 125.255 37.9001 125.255 39.0201V46.7481H126.459V47.2521H118.507V46.7481H120.047V34.4281H118.507V33.9241ZM145.253 27.0921C145.253 26.4201 144.899 26.0841 144.189 26.0841C143.48 26.0841 143.013 26.3548 142.789 26.8961C142.565 27.4188 142.453 28.2681 142.453 29.4441V33.9241H145.029V34.4281H142.453V46.7481H144.077V47.2521H135.705V46.7481H137.245V34.4281H135.621V33.9241H137.245V33.8681C137.245 31.2548 137.805 29.2295 138.925 27.7921C140.045 26.3361 141.697 25.6081 143.881 25.6081C146.065 25.6081 147.475 26.2428 148.109 27.5121L151.049 26.2521H151.665V46.7481H153.233V47.2521H145.197V46.7481H146.457V32.4401L146.765 30.8441C146.523 31.0308 146.14 31.1241 145.617 31.1241C145.095 31.1241 144.665 30.9468 144.329 30.5921C143.993 30.2188 143.825 29.8081 143.825 29.3601C143.825 28.8935 143.881 28.4361 143.993 27.9881H145.057C145.188 27.6708 145.253 27.3721 145.253 27.0921ZM169.995 47.2521H163.611L163.303 45.2081C163.005 45.9548 162.557 46.5335 161.959 46.9441C161.381 47.3361 160.513 47.5321 159.355 47.5321C156.462 47.5321 155.015 45.9735 155.015 42.8561V34.4281H153.447V33.9241H160.223V43.5281C160.223 44.6481 160.298 45.3855 160.447 45.7401C160.615 46.0948 160.933 46.2721 161.399 46.2721C161.885 46.2721 162.314 45.9828 162.687 45.4041C163.061 44.8255 163.247 44.0228 163.247 42.9961V34.4281H161.959V33.9241H168.455V46.7481H169.995V47.2521ZM177.933 47.5321C175.525 47.5321 173.714 46.9161 172.501 45.6841C171.306 44.4335 170.709 42.7068 170.709 40.5041C170.709 38.2828 171.381 36.5841 172.725 35.4081C174.087 34.2321 175.814 33.6441 177.905 33.6441C182.142 33.6441 184.177 35.7721 184.009 40.0281H176.113V41.1201C176.113 42.9495 176.346 44.3308 176.813 45.2641C177.279 46.1975 178.091 46.6641 179.249 46.6641C181.414 46.6641 182.833 45.5068 183.505 43.1921L184.009 43.2761C183.654 44.6201 183.01 45.6655 182.077 46.4121C181.162 47.1588 179.781 47.5321 177.933 47.5321ZM176.141 39.4681H179.025V38.0961C179.025 36.5841 178.931 35.5575 178.745 35.0161C178.577 34.4561 178.222 34.1761 177.681 34.1761C177.158 34.1761 176.766 34.4748 176.505 35.0721C176.262 35.6508 176.141 36.6588 176.141 38.0961V39.4681ZM185.062 33.9241H191.81V36.5001C192.109 35.6415 192.566 34.9508 193.182 34.4281C193.798 33.9055 194.731 33.6441 195.982 33.6441C198.875 33.6441 200.322 35.2028 200.322 38.3201V46.7481H201.89V47.2521H193.966V46.7481H195.114V37.6481C195.114 36.5281 195.039 35.8095 194.89 35.4921C194.741 35.1561 194.47 34.9881 194.078 34.9881C193.481 34.9881 192.949 35.3801 192.482 36.1641C192.034 36.9481 191.81 37.9001 191.81 39.0201V46.7481H193.014V47.2521H185.062V46.7481H186.602V34.4281H185.062V33.9241ZM210.1 34.1481C209.279 34.1481 208.691 34.5961 208.336 35.4921C207.981 36.3881 207.804 37.8721 207.804 39.9441V41.4001C207.804 43.2481 208.009 44.5735 208.42 45.3761C208.831 46.1788 209.587 46.5801 210.688 46.5801C211.789 46.5801 212.667 46.2068 213.32 45.4601C213.973 44.7135 214.393 43.8641 214.58 42.9121L215.084 42.9681C214.729 44.5735 214.076 45.7308 213.124 46.4401C212.153 47.1681 210.819 47.5321 209.12 47.5321C206.955 47.5321 205.293 46.9535 204.136 45.7961C202.979 44.6201 202.4 42.9121 202.4 40.6721C202.4 38.4135 203.053 36.6775 204.36 35.4641C205.685 34.2508 207.524 33.6441 209.876 33.6441C211.537 33.6441 212.807 33.9708 213.684 34.6241C214.561 35.2588 215 36.0615 215 37.0321C215 38.0028 214.785 38.7121 214.356 39.1601C213.945 39.6081 213.367 39.8321 212.62 39.8321C211.892 39.8321 211.304 39.6361 210.856 39.2441C210.408 38.8521 210.184 38.2735 210.184 37.5081C210.184 37.1721 210.231 36.8361 210.324 36.5001H211.248C211.379 36.1268 211.444 35.7908 211.444 35.4921C211.444 34.5961 210.996 34.1481 210.1 34.1481ZM223.159 47.5321C220.751 47.5321 218.94 46.9161 217.727 45.6841C216.532 44.4335 215.935 42.7068 215.935 40.5041C215.935 38.2828 216.607 36.5841 217.951 35.4081C219.314 34.2321 221.04 33.6441 223.131 33.6441C227.368 33.6441 229.403 35.7721 229.235 40.0281H221.339V41.1201C221.339 42.9495 221.572 44.3308 222.039 45.2641C222.506 46.1975 223.318 46.6641 224.475 46.6641C226.64 46.6641 228.059 45.5068 228.731 43.1921L229.235 43.2761C228.88 44.6201 228.236 45.6655 227.303 46.4121C226.388 47.1588 225.007 47.5321 223.159 47.5321ZM221.367 39.4681H224.251V38.0961C224.251 36.5841 224.158 35.5575 223.971 35.0161C223.803 34.4561 223.448 34.1761 222.907 34.1761C222.384 34.1761 221.992 34.4748 221.731 35.0721C221.488 35.6508 221.367 36.6588 221.367 38.0961V39.4681ZM230.729 31.6281C230.729 30.4148 231.28 29.3975 232.381 28.5761C233.482 27.7548 235.05 27.3441 237.085 27.3441C239.138 27.3441 240.716 27.7361 241.817 28.5201C242.937 29.3041 243.497 30.4615 243.497 31.9921C243.497 33.0001 243.245 33.8961 242.741 34.6801C242.256 35.4455 241.574 36.2295 240.697 37.0321L236.469 40.7841V42.4081H235.769V36.5281C235.769 36.2108 235.872 35.9495 236.077 35.7441L237.813 33.9801C238.354 33.4388 238.728 32.9348 238.933 32.4681C239.138 31.9828 239.241 31.3575 239.241 30.5921C239.241 28.7815 238.401 27.8761 236.721 27.8761C235.918 27.8761 235.33 28.0908 234.957 28.5201C234.584 28.9495 234.397 29.3601 234.397 29.7521C234.397 30.1441 234.453 30.4895 234.565 30.7881H235.461C235.61 31.1801 235.685 31.6561 235.685 32.2161C235.685 32.7575 235.452 33.2335 234.985 33.6441C234.518 34.0361 233.902 34.2321 233.137 34.2321C232.372 34.2321 231.774 33.9895 231.345 33.5041C230.934 33.0001 230.729 32.3748 230.729 31.6281ZM236.049 47.5321C235.358 47.5321 234.836 47.3361 234.481 46.9441C234.145 46.5335 233.977 46.0295 233.977 45.4321C233.977 44.8161 234.164 44.3121 234.537 43.9201C234.91 43.5095 235.424 43.3041 236.077 43.3041C236.73 43.3041 237.253 43.4815 237.645 43.8361C238.037 44.1721 238.233 44.6761 238.233 45.3481C238.233 46.0201 238.046 46.5521 237.673 46.9441C237.3 47.3361 236.758 47.5321 236.049 47.5321Z" fill="#272727"/>
</svg>
